<svg xmlns="http://www.w3.org/2000/svg" enable-background="new 0 0 64 64" viewBox="0 0 64 64"><path fill="#2a2f63" d="M49.14,13.08H25.23c-2.07,0-3.75,1.68-3.75,3.75v16.29h-1.61v-9.23c0-1.71-1.4-3.11-3.11-3.11H3.27
		c-1.72,0-3.11,1.4-3.11,3.11v19.64c0,1.72,1.39,3.11,3.11,3.11h5.41v3.55c0,1.63,1.33,2.96,2.97,2.96h9.83v1.09
		c0,2.06,1.68,3.74,3.75,3.74h23.91c2.06,0,3.75-1.68,3.75-3.74V16.83C52.89,14.76,51.2,13.08,49.14,13.08z M8.68,36.08v7.7H3.27
		c-0.13,0-0.25-0.12-0.25-0.25V23.89c0-0.13,0.12-0.24,0.25-0.24h13.49c0.13,0,0.24,0.11,0.24,0.24v9.23h-5.35
		C10.01,33.12,8.68,34.45,8.68,36.08z M11.65,50.28c-0.06,0-0.1-0.04-0.1-0.09V36.08c0-0.05,0.04-0.09,0.1-0.09h25.54
		c0.06,0,0.1,0.04,0.1,0.09v14.11c0,0.05-0.04,0.09-0.1,0.09H11.65z M50.02,54.24c0,0.48-0.4,0.87-0.88,0.87H25.23
		c-0.49,0-0.88-0.39-0.88-0.87v-1.09h12.84c1.64,0,2.97-1.33,2.97-2.96V36.08c0-1.63-1.33-2.96-2.97-2.96H24.35V16.83
		c0-0.49,0.39-0.89,0.88-0.89h23.91c0.48,0,0.88,0.4,0.88,0.89V54.24z"/><path fill="#d6e9f2" d="M17,23.89v9.23h-5.35c-1.64,0-2.97,1.33-2.97,2.96v7.7H3.27c-0.13,0-0.25-0.12-0.25-0.25V23.89
		c0-0.13,0.12-0.24,0.25-0.24h13.49C16.89,23.65,17,23.76,17,23.89z"/><path fill="#d6e9f2" d="M37.19,35.99H11.65c-0.06,0-0.1,0.04-0.1,0.09v14.11c0,0.05,0.04,0.09,0.1,0.09h25.54
		c0.06,0,0.1-0.04,0.1-0.09V36.08C37.29,36.03,37.25,35.99,37.19,35.99z M26.56,44.2l-2.15,2.15c-0.28,0.28-0.65,0.42-1.01,0.42
		c-0.37,0-0.74-0.14-1.02-0.42c-0.56-0.56-0.56-1.46,0-2.02l1.14-1.14l-1.24-1.25c-0.56-0.56-0.56-1.46,0-2.02
		c0.56-0.56,1.46-0.56,2.02,0l2.26,2.25c0.27,0.27,0.42,0.64,0.42,1.02C26.98,43.57,26.83,43.93,26.56,44.2z"/><path fill="#9fd1f0" d="M50.02,16.83v37.41c0,0.48-0.4,0.87-0.88,0.87H25.23c-0.49,0-0.88-0.39-0.88-0.87v-1.09h12.84
		c1.64,0,2.97-1.33,2.97-2.96V36.08c0-1.63-1.33-2.96-2.97-2.96H24.35V16.83c0-0.49,0.39-0.89,0.88-0.89h23.91
		C49.62,15.94,50.02,16.34,50.02,16.83z"/><path fill="#2a2f63" d="M18.6,6.02H1.43C0.64,6.02,0,6.66,0,7.45v10.48c0,0.79,0.64,1.43,1.43,1.43H18.6c0.79,0,1.43-0.64,1.43-1.43
		V7.45C20.03,6.66,19.39,6.02,18.6,6.02z M17.17,16.49H2.87v-7.6h14.3V16.49z"/><path fill="#d6e9f2" d="M2.87,8.89v7.6h14.3v-7.6H2.87z M12.16,13.76L10,15.91c-0.28,0.28-0.64,0.42-1.01,0.42s-0.73-0.14-1.01-0.42
		c-0.56-0.56-0.56-1.47,0-2.03l1.14-1.14L7.87,11.5c-0.56-0.56-0.56-1.47,0-2.03c0.56-0.56,1.47-0.56,2.03,0l2.26,2.26
		C12.72,12.29,12.72,13.2,12.16,13.76z"/><path fill="#2a2f63" d="M12.16 13.76L10 15.91c-.28.28-.64.42-1.01.42s-.73-.14-1.01-.42c-.56-.56-.56-1.47 0-2.03l1.14-1.14L7.87 11.5c-.56-.56-.56-1.47 0-2.03.56-.56 1.47-.56 2.03 0l2.26 2.26C12.72 12.29 12.72 13.2 12.16 13.76zM26.98 43.19c0 .38-.15.74-.42 1.01l-2.15 2.15c-.28.28-.65.42-1.01.42-.37 0-.74-.14-1.02-.42-.56-.56-.56-1.46 0-2.02l1.14-1.14-1.24-1.25c-.56-.56-.56-1.46 0-2.02.56-.56 1.46-.56 2.02 0l2.26 2.25C26.83 42.44 26.98 42.81 26.98 43.19zM63.9 22.17c0-.01 0-.01 0-.02l-2.87-7.21c-.22-.53-.73-.89-1.31-.9-.01 0-.01 0-.02 0-.57 0-1.08.33-1.31.85l-3.21 7.21c0 0 0 0-.01.01-.03.07-.05.15-.07.22 0 .02-.01.04-.02.06-.02.09-.03.19-.03.29v29.86c0 2.47 2.01 4.48 4.48 4.48 2.46 0 4.47-2.01 4.47-4.48V22.68C64 22.5 63.96 22.33 63.9 22.17zM59.62 19.16l.83 2.09h-1.76L59.62 19.16zM61.13 52.54c0 .89-.72 1.61-1.6 1.61-.89 0-1.61-.72-1.61-1.61v-.72h3.21V52.54zM61.13 48.95h-3.21V24.11h3.21V48.95z"/><polygon fill="#ffe4aa" points="60.45 21.25 58.69 21.25 59.62 19.16"/><path fill="#53be9e" d="M61.13,51.82v0.72c0,0.89-0.72,1.61-1.6,1.61c-0.89,0-1.61-0.72-1.61-1.61v-0.72H61.13z"/><rect width="3.21" height="24.84" x="57.92" y="24.11" fill="#f16e61"/></svg>