<svg xmlns="http://www.w3.org/2000/svg" enable-background="new 0 0 64 64" viewBox="0 0 64 64"><path fill="#da4765" d="M25.92,43.09c-1.1-2.12-6.05-3.1-6.05-3.1c-5.37-1.21-8.85-4.39-8.85-4.39C7.61,33,6.69,28.68,6.58,25.21
			c-0.07-2.18,0.2-4.36,0.71-6.48c1.8-7.51-2.99-9.8-2.99-9.8l2.19-4.54C18.43,8.01,25.92,0,25.92,0s7.48,8.01,19.43,4.38l2.19,4.54
			c0,0-4.79,2.29-2.99,9.8c0.51,2.12,0.78,4.3,0.71,6.48c-0.11,3.47-1.03,7.79-4.44,10.4c0,0-3.48,3.18-8.85,4.39
			C31.96,39.99,27.01,40.98,25.92,43.09z"/><path fill="#e9e9e9" d="M30.75,29.22l-2.35-7.26c-0.08-0.25,0.02-0.51,0.23-0.66c1.38-0.98,2.21-2.7,1.92-4.58
			c-0.32-2.04-2.02-3.67-4.07-3.91c-2.85-0.33-5.27,1.88-5.27,4.67c0,1.57,0.77,2.96,1.96,3.81c0.22,0.16,0.33,0.43,0.24,0.69
			l-2.34,7.24c-0.17,0.54,0.23,1.09,0.79,1.09h8.09C30.53,30.31,30.93,29.76,30.75,29.22z"/><path fill="#fc6" d="M59.71,35.45v5.76c0,1.49-0.09,2.97-0.27,4.44l-1.74,14.26c-0.02,0.2-0.04,0.4-0.04,0.6V64H36.64v-2.56
		c0-0.8-0.2-1.59-0.57-2.29l-5.09-9.65c-0.52-0.99-1.14-1.93-1.84-2.8l-7.4-9.19c-1.1-1.37-0.89-3.38,0.48-4.48l0,0
		c1.37-1.1,3.38-0.89,4.48,0.48l5.5,6.83c0.11,0.14,0.34,0.06,0.34-0.12v-22.5c0-1.76,1.43-3.18,3.18-3.18l0,0
		c1.76,0,3.18,1.43,3.18,3.18v15.92c0,0.15,0.13,0.28,0.28,0.28l0,0c0.15,0,0.28-0.13,0.28-0.28v-3.82c0-1.76,1.43-3.18,3.18-3.18
		l0,0c1.76,0,3.18,1.43,3.18,3.18v5.7c0,0.15,0.13,0.28,0.28,0.28l0,0c0.15,0,0.28-0.13,0.28-0.28v-2.83c0-1.76,1.43-3.18,3.18-3.18
		h0.01c1.76,0,3.18,1.43,3.18,3.18v4.58c0,0.15,0.13,0.28,0.28,0.28l0,0c0.15,0,0.28-0.13,0.28-0.28v-1.82
		c0-1.76,1.43-3.18,3.18-3.18h0.01C58.28,32.27,59.71,33.7,59.71,35.45z"/></svg>