<svg xmlns="http://www.w3.org/2000/svg" data-name="Layer 1" viewBox="0 0 512 512"><rect width="437" height="422" x="7.5" y="45" fill="#7a6d79" rx="27.451"/><path fill="#685e68" d="M417.04926,45h-30A27.45067,27.45067,0,0,1,414.5,72.45068V439.54932A27.45067,27.45067,0,0,1,387.04926,467h30A27.45067,27.45067,0,0,0,444.5,439.54932V72.45068A27.45067,27.45067,0,0,0,417.04926,45Z"/><path fill="#f9f7f8" d="M34.95074,467H417.04926A27.45067,27.45067,0,0,0,444.5,439.54932V99.22241H325.95209A29.86891,29.86891,0,0,1,301.018,85.75317L283.04,58.46924A29.86894,29.86894,0,0,0,258.1059,45H220.05145A29.89425,29.89425,0,0,0,193.549,61.13843L182.1264,83.084A29.89423,29.89423,0,0,1,155.624,99.22241H7.5V439.54932A27.45067,27.45067,0,0,0,34.95074,467Z"/><path fill="#e5e1e5" d="M414.5,99.22241V439.54932A27.45067,27.45067,0,0,1,387.04926,467h30A27.45067,27.45067,0,0,0,444.5,439.54932V99.22241Z"/><path fill="#b3dafe" d="M257.69 336.309H217.842V301.43448h35.7845a15.25894 15.25894 0 1 0 0-30.51788H217.842V236.04306H257.69a15.25895 15.25895 0 0 0 0-30.51789H202.583a15.25907 15.25907 0 0 0-15.25895 15.259V351.568a15.25906 15.25906 0 0 0 15.259 15.25894H257.69a15.25894 15.25894 0 0 0 0-30.51789zM100.305 366.8269c-21.93274 0-43.35387-9.18815-57.3015-24.57723a15.26068 15.26068 0 0 1 1.93368-22.28927 15.53088 15.53088 0 0 1 20.8801 2.01454C74.08452 330.95538 86.9516 336.309 100.305 336.309c13.40472 0 22.87-8.15 24.27722-16.02884 1.91631-10.73391-12.01741-17.10819-18.09665-19.35084L105.59 300.599c-11.86939-4.37751-24.1431-8.90354-35.98071-14.45378a40.8812 40.8812 0 0 1-22.7235-42.731c2.491-17.09876 15.04386-31.03546 32.75954-36.37211 26.01172-7.83616 48.65912 3.059 59.3424 9.80906 7.34935 4.64358 9.44839 14.69959 4.15606 21.59647q-.32532.424-.67938.83022a11.93322 11.93322 0 0 1-4.31971 2.85984 20.96459 20.96459 0 0 1-18.31106-1.18728c-6.89443-3.80474-18.81334-8.47241-31.38561-4.68784-4.67057 1.40718-10.4488 5.27656-11.36325 11.5515a10.16037 10.16037 0 0 0 5.47971 10.69914c10.6614 4.9989 22.31521 9.29643 33.58508 13.45291l.897.33081c32.58321 12.0189 40.776 35.43829 37.57813 53.34669-2.033 11.38858-8.63829 21.8493-18.59833 29.45393A59.03976 59.03976 0 0 1 100.305 366.8269z"/><rect width="30.511" height="36.77" x="421.578" y="351.176" fill="#c9bfc8" transform="rotate(-30 436.834 369.56)"/><polygon fill="#baafb9" points="427.566 353.682 445.951 385.526 459.238 377.854 440.853 346.011 414.43 361.266 414.43 361.266 427.566 353.682"/><path fill="#ab695d" d="M458.87477,374.32879h16.52894a18.72591,18.72591,0,0,1,18.72591,18.72591v49.728A26.99035,26.99035,0,0,1,467.13927,469.773h-.00006a26.99035,26.99035,0,0,1-26.99035-26.99035v-49.728A18.72591,18.72591,0,0,1,458.87477,374.32879Z" transform="rotate(-30 467.14 422.05)"/><path fill="#935b50" d="M500.87946,426.51l-24.864-43.0658a18.72594,18.72594,0,0,0-25.58008-6.85412l-6.606,3.814a18.8064,18.8064,0,0,1,2.18609,3.04016l24.864,43.0658a26.98722,26.98722,0,0,1-8.38068,35.93054,26.98658,26.98658,0,0,0,28.50146.93884h.00007A26.9902,26.9902,0,0,0,500.87946,426.51Z"/><circle cx="388.344" cy="285.573" r="82.967" fill="#b3dafe"/><path fill="#8ac9fe" d="M460.19525,244.08948a83.09835,83.09835,0,0,0-86.9765-40.08191,82.92548,82.92548,0,0,1,.24994,163.13086,82.90344,82.90344,0,0,0,86.72656-123.049Z"/><circle cx="388.344" cy="285.573" r="55.157" fill="#eaf6ff"/><path d="M357.01514,231.31055A62.65712,62.65712,0,1,0,442.606,254.24463,62.72754,62.72754,0,0,0,357.01514,231.31055Zm72.60058,30.43408a47.60077,47.60077,0,1,1-41.34961-23.84912A47.92213,47.92213,0,0,1,400.67822,239.54,47.3428,47.3428,0,0,1,429.61572,261.74463ZM45.01062,64.594a7.52246,7.52246,0,1,0,7.47961,7.52247A7.50114,7.50114,0,0,0,45.01062,64.594Zm29.91846,0a7.52246,7.52246,0,1,0,7.47961,7.52247A7.50115,7.50115,0,0,0,74.92908,64.594ZM257.68994,243.543a22.75879,22.75879,0,1,0,0-45.51758H202.583a22.78446,22.78446,0,0,0-22.75879,22.75879V351.56787A22.78446,22.78446,0,0,0,202.583,374.32666h55.10693a22.75879,22.75879,0,1,0,0-45.51758H225.3418V308.93457h28.28466a22.759,22.759,0,0,0,0-45.51807H225.3418V243.543ZM217.8418,278.4165h35.78466a7.759,7.759,0,0,1,0,15.51807H217.8418a7.50006,7.50006,0,0,0-7.5,7.5v34.87451a7.50006,7.50006,0,0,0,7.5,7.5h39.84814a7.75879,7.75879,0,1,1,0,15.51758H202.583a7.76744,7.76744,0,0,1-7.75879-7.75879V220.78418a7.76744,7.76744,0,0,1,7.75879-7.75879h55.10693a7.75879,7.75879,0,1,1,0,15.51758H217.8418a7.50006,7.50006,0,0,0-7.5,7.5V270.9165A7.50006,7.50006,0,0,0,217.8418,278.4165ZM507.37451,422.75977l-24.86377-43.06543a26.05413,26.05413,0,0,0-15.9248-12.21924,26.47968,26.47968,0,0,0-5.16608-.85034l-9.58954-16.59436a89.86062,89.86062,0,0,0,19.08374-27.56556A90.42721,90.42721,0,0,0,452,221.28687V72.45068A34.99014,34.99014,0,0,0,417.04932,37.5H34.95068A34.99014,34.99014,0,0,0,0,72.45068V439.54932A34.99014,34.99014,0,0,0,34.95068,474.5H417.04932a34.96523,34.96523,0,0,0,30.35223-17.65515l.23419.40564a34.49033,34.49033,0,0,0,59.73877-34.49072ZM453.7002,247.83936a75.7808,75.7808,0,0,1,3.51123,68.52294,75.44568,75.44568,0,1,1-69.05616-106.26025,76.09582,76.09582,0,0,1,19.71094,2.61279A74.954,74.954,0,0,1,453.7002,247.83936Zm-7.45282,122.50878-13.44062,7.75977L426.687,367.50659c2.33234-1.09534,4.63348-2.28369,6.8902-3.58667,2.25372-1.30127,4.4328-2.6969,6.54657-4.16846ZM417.04932,52.5A19.97311,19.97311,0,0,1,437,72.45068V91.72217H325.95215a22.31967,22.31967,0,0,1-18.67139-10.09571l-17.978-27.28369c-.41534-.63037-.84973-1.24328-1.29791-1.84277ZM15,72.45068A19.97311,19.97311,0,0,1,34.95068,52.5H190.16779a37.886,37.886,0,0,0-3.27179,5.17578L175.47363,79.62109A22.33274,22.33274,0,0,1,155.624,91.72217H15ZM437,439.54932A19.97311,19.97311,0,0,1,417.04932,459.5H34.95068A19.97311,19.97311,0,0,1,15,439.54932V106.72217H155.624A37.28575,37.28575,0,0,0,188.7793,86.54639l11.42236-21.94532A22.33331,22.33331,0,0,1,220.05127,52.5H258.106a22.32081,22.32081,0,0,1,18.67138,10.0957l17.978,27.28369a37.28009,37.28009,0,0,0,31.19678,16.84278H437V209.304a90.907,90.907,0,0,0-25.25146-11.07789A90.42827,90.42827,0,1,0,364.939,372.91992a91.16461,91.16461,0,0,0,23.61817,3.13037,89.30507,89.30507,0,0,0,23.86383-3.25293l9.57648,16.58911a26.48849,26.48849,0,0,0-1.84558,4.89722,26.05348,26.05348,0,0,0,2.61962,19.90088l14.262,24.70227C437.01428,439.10547,437,439.32568,437,439.54932Zm50.25049,17.335a19.51456,19.51456,0,0,1-26.62451-7.13379l-24.86426-43.06592a11.239,11.239,0,0,1,4.10937-15.335l14.31446-8.26416a11.15712,11.15712,0,0,1,5.59472-1.50879,11.28382,11.28382,0,0,1,2.92383.38721,11.15385,11.15385,0,0,1,6.81641,5.23047l24.86377,43.06543A19.51266,19.51266,0,0,1,487.25049,456.88428ZM119.63965,265.25977l-.93018-.34327c-11.11035-4.09814-22.59961-8.33545-32.96191-13.19433a2.70689,2.70689,0,0,1-1.24072-2.82715c.40332-2.77148,3.87207-4.77832,6.10351-5.45068,9.74317-2.93311,19.29981.59619,25.59961,4.07275a28.629,28.629,0,0,0,24.88037,1.51758,18.88805,18.88805,0,0,0,7.02735-4.82813c.33935-.38916.66552-.78808.97607-1.19287a22.02463,22.02463,0,0,0,4.14844-17.24609,22.81621,22.81621,0,0,0-10.24854-15.25684c-12.16211-7.68457-36.84668-19.28613-65.51172-10.6499-20.53466,6.186-35.10205,22.46045-38.01806,42.47217a48.4328,48.4328,0,0,0,26.96142,50.60254c12.123,5.68408,24.54541,10.26562,36.5708,14.70068l.89356.32959c7.13232,2.63086,14.01367,7.05127,13.30908,10.99561-.7373,4.12841-7.01807,9.84765-16.89355,9.84765-11.27247,0-22.10254-4.45361-28.97022-11.91357-8.13281-8.83447-21.7583-10.084-31.01758-2.84326a22.76,22.76,0,0,0-2.87109,33.23388c15.34619,16.93213,38.84473,27.04053,62.85889,27.04053a66.57318,66.57318,0,0,0,40.27246-13.26807c11.45605-8.74658,19.06689-20.856,21.43017-34.09668C165.73975,306.06494,156.57031,278.88184,119.63965,265.25977Zm27.60156,59.06591c-1.70215,9.53662-7.30127,18.34766-15.7666,24.81153a51.5043,51.5043,0,0,1-31.16943,10.18945c-19.85059,0-39.19483-8.2666-51.74414-22.11328a7.76072,7.76072,0,0,1,.9956-11.34473,7.41088,7.41088,0,0,1,4.59033-1.55029,8.40156,8.40156,0,0,1,6.15235,2.73633c9.65771,10.49121,24.61328,16.75439,40.00586,16.75439,17.9873,0,29.73681-11.44336,31.66015-22.21045,2.05078-11.48633-6.29-21.58447-22.88623-27.70654l-.90478-.3335c-11.71875-4.32226-23.83643-8.791-35.38135-14.2041a33.33051,33.33051,0,0,1-18.48535-34.85888c2.0664-14.18506,12.60449-25.78467,27.50146-30.27247,22.96485-6.91992,43.17139,2.64942,53.17237,8.96827a7.78446,7.78446,0,0,1,3.49365,5.20849,6.90063,6.90063,0,0,1-1.28321,5.48389c-.12158.15869-.24853.314-.35937.44189a5.796,5.796,0,0,1-1.63379.91455,13.542,13.542,0,0,1-11.74121-.856c-7.22168-3.98535-21.6543-9.97315-37.17285-5.30274-6.77881,2.04248-15.19971,7.89063-16.62158,17.65137a17.7069,17.7069,0,0,0,9.71728,18.5708c10.93945,5.1294,22.7334,9.47949,34.17578,13.69971l.89453.33008C149.99121,292.44336,148.53418,317.085,147.24121,324.32568ZM104.84753,64.594a7.52246,7.52246,0,1,0,7.47962,7.52247A7.50114,7.50114,0,0,0,104.84753,64.594ZM220.12842,93.30225h39.06982a7.5,7.5,0,0,0,0-15H220.12842a7.5,7.5,0,0,0,0,15Z"/></svg>