<svg xmlns="http://www.w3.org/2000/svg" width="32" height="32" viewBox="0 0 32 32"><g transform="translate(.25 -1020.362)"><path fill="#8fb6d7" stroke="#105286" d="m 7.3188624,1041.1361 16.8065296,0 m -16.8065296,-9.6041 16.8065296,0 m -8.403105,-4.802 0,19.2081 m -9.6037767,-9.604 19.2073947,0 m 0,0 c 0,5.3041 -4.29968,9.604 -9.603618,9.604 -5.304081,0 -9.6037767,-4.2999 -9.6037767,-9.604 0,-5.3042 4.2996957,-9.6041 9.6037767,-9.6041 5.303938,0 9.603618,4.2999 9.603618,9.6041 z"/><path fill="none" stroke="#105286" d="M12.418606 1027.3941c-2.4389786 6.0058-2.8340642 11.6051-.191836 17.7999M18.95339 1027.3941c2.438979 6.0058 2.834064 11.6051.19182 17.7999"/><path fill="none" stroke="#105286" stroke-linecap="round" stroke-linejoin="round" d="m 5.1368448,1042.4451 a 12.22288,12.22221 0 0 1 3.1445069,-15.8076 12.22288,12.22221 0 0 1 16.0836993,1.0541"/><path fill="none" stroke="#105286" stroke-linecap="round" stroke-linejoin="round" d="M24.386485 1025.8948l0 1.8188-1.818881 0M7.1088955 1046.8484l0-1.8188 1.8188811 0"/><path fill="none" stroke="#105286" stroke-linecap="round" stroke-linejoin="round" d="m -26.362628,-1030.2793 a 12.22288,12.22221 0 0 1 3.144507,-15.8076 12.22288,12.22221 0 0 1 16.0836995,1.0541" transform="scale(-1)"/></g></svg>